{"title":"Saving Private Ryan 720P BluRay By BRAR+Ashish7(wall.e)","uid":7480715,"size":2841131417,"categoryP":"video","categoryS":"hd___movies","magnet":"?xt=urn:btih:34b56eb205ea76edc8f8499a1dbb6ec4f77a77bc&amp;dn=Saving+Private+Ryan+720P+BluRay+By+BRAR%2BAshish7%28wall.e%29&amp;tr=udp%3A%2F%2Ftracker.openbittorrent.com%3A80&amp;tr=udp%3A%2F%2Fopen.demonii.com%3A1337&amp;tr=udp%3A%2F%2Ftracker.coppersurfer.tk%3A6969&amp;tr=udp%3A%2F%2Fexodus.desync.com%3A6969","seeders":0,"leechers":1,"uploader":"wall.e","files":15,"time":1343426733,"description":"Format                           : Matroska\nFile size                        : 2.63 GiB\nDuration                         : 2h 41mn\nOverall bit rate                 : 2328 Kbps\n\nVideo\nID                               : 1\nFormat                           : AVC\nFormat/Info                      : Advanced Video Codec\nNominal bit rate                 : 1771 Kbps\nWidth                            : 1280 pixels\nHeight                           : 688 pixels\nFrame rate                       : 25.000 fps\nColor space                      : YUV\nChroma subsampling               : 4:2:0\nStream size                      : 1.89 GiB (72%)\nTitle                            : 720P BluRay ~ Ashish7(wall.e)\n\nAudio #1\nID                               : 2\nFormat                           : AC-3\nFormat/Info                      : Audio Coding 3\nBit rate                         : 448 Kbps\nChannel(s)                       : 6 channels\nChannel positions                : Front: L C R, Side: L R, LFE\nSampling rate                    : 48.0 KHz\nBit depth                        : 16 bits\nStream size                      : 519 MiB (19%)\nTitle                            : 5.1 Hindi Audio ~ Ashish7(wall.e)\n\nAudio #2\nID                               : 3\nFormat                           : AC-3\nBit rate                         : 160 Kbps\nChannel(s)                       : 2 channels\nChannel positions                : Front: L R\nSampling rate                    : 48.0 KHz\nBit depth                        : 16 bits\nStream size                      : 185 MiB (7%)\nTitle                            : English Audio ~ Ashish7(wall.e)","torrent":{"xt":"urn:btih:34b56eb205ea76edc8f8499a1dbb6ec4f77a77bc","amp;dn":"Saving+Private+Ryan+720P+BluRay+By+BRAR%2BAshish7%28wall.e%29","amp;tr":["udp%3A%2F%2Ftracker.openbittorrent.com%3A80","udp%3A%2F%2Fopen.demonii.com%3A1337","udp%3A%2F%2Ftracker.coppersurfer.tk%3A6969","udp%3A%2F%2Fexodus.desync.com%3A6969"],"infoHash":"34b56eb205ea76edc8f8499a1dbb6ec4f77a77bc","infoHashBuffer":{"type":"Buffer","data":[52,181,110,178,5,234,118,237,200,248,73,154,29,187,110,196,247,122,119,188]},"announce":[],"urlList":[]}}